<?xml version="1.0" encoding="UTF-8" standalone="no"?>
<!DOCTYPE svg PUBLIC "-//W3C//DTD SVG 1.1//EN" "http://www.w3.org/Graphics/SVG/1.1/DTD/svg11.dtd">
<svg xmlns="http://www.w3.org/2000/svg" version="1.1" viewBox="0 0 193 42">
<path fill="white" d="
  M 53.02 6.65
  C 53.02 9.91 50.38 12.55 47.12 12.55
  C 43.86 12.55 41.22 9.91 41.22 6.65
  C 41.22 3.39 43.86 0.75 47.12 0.75
  C 50.38 0.75 53.02 3.39 53.02 6.65
  Z
  M 49.46 6.61
  C 49.46 5.32 48.42 4.28 47.13 4.28
  C 45.84 4.28 44.80 5.32 44.80 6.61
  C 44.80 7.90 45.84 8.94 47.13 8.94
  C 48.42 8.94 49.46 7.90 49.46 6.61
  Z"
/>
<path fill="white" d="
  M 69.40 24.10
  Q 71.92 21.57 74.53 18.02
  Q 75.88 16.17 77.74 14.96
  Q 79.60 13.74 81.51 13.98
  Q 84.38 14.33 83.56 17.33
  Q 83.18 18.70 81.68 20.11
  Q 78.01 23.56 74.23 27.40
  C 74.05 27.58 74.03 27.87 74.19 28.07
  Q 77.32 32.08 82.03 33.83
  C 82.33 33.95 82.67 33.95 82.97 33.85
  Q 88.14 32.10 91.80 28.27
  Q 92.00 28.06 95.64 22.79
  Q 98.04 19.30 101.65 16.89
  Q 105.41 14.37 109.74 15.08
  Q 111.52 15.37 112.55 16.48
  Q 113.73 17.74 113.98 19.47
  Q 114.12 20.48 113.52 22.97
  Q 113.10 24.70 112.93 26.49
  Q 112.60 29.88 115.04 30.13
  Q 116.37 30.27 118.29 29.23
  Q 123.46 26.45 126.96 21.65
  C 127.14 21.40 127.24 21.09 127.24 20.75
  Q 127.29 16.81 130.39 16.33
  Q 132.65 15.98 133.43 17.58
  Q 134.14 19.03 133.33 21.57
  Q 133.08 22.39 133.21 23.24
  Q 133.41 24.55 134.05 23.53
  Q 136.44 19.77 140.50 18.00
  Q 144.89 16.09 148.25 18.25
  Q 151.74 20.49 148.41 22.96
  C 148.16 23.14 147.85 23.24 147.51 23.23
  Q 141.48 23.05 137.81 27.56
  Q 133.82 32.48 132.36 39.01
  C 132.28 39.36 132.12 39.65 131.91 39.86
  Q 129.72 41.97 127.22 40.24
  C 126.95 40.06 126.76 39.79 126.66 39.47
  Q 125.49 35.69 126.05 31.33
  Q 126.28 29.58 125.04 30.84
  Q 122.04 33.88 118.08 35.60
  Q 112.71 37.92 108.62 33.18
  C 108.44 32.96 108.11 32.97 107.93 33.19
  Q 104.85 37.15 100.33 38.98
  Q 97.53 40.11 95.57 39.44
  Q 92.93 38.55 92.22 35.11
  Q 91.92 33.67 90.91 34.74
  Q 88.83 36.92 85.63 38.58
  Q 79.38 41.83 74.34 36.91
  Q 72.25 34.87 70.17 32.80
  C 69.79 32.42 69.16 32.47 68.85 32.91
  Q 67.10 35.35 67.16 37.95
  C 67.17 38.30 67.09 38.62 66.94 38.87
  Q 65.30 41.56 62.69 40.33
  C 61.73 39.87 61.15 38.94 61.23 38.00
  L 61.82 31.79
  Q 61.99 29.95 60.88 31.36
  Q 57.28 35.94 51.56 39.06
  Q 46.42 41.87 42.60 37.96
  Q 41.42 36.74 40.63 34.93
  Q 39.75 32.93 39.72 31.38
  Q 39.67 29.29 38.16 30.74
  Q 32.34 36.38 25.58 36.36
  Q 23.34 36.35 22.18 35.34
  Q 20.86 34.19 20.25 32.00
  Q 19.32 28.69 19.25 25.23
  Q 19.22 23.82 18.20 24.80
  Q 11.47 31.29 7.09 39.87
  Q 6.35 41.34 4.71 41.53
  Q 0.29 42.06 0.94 37.24
  Q 2.58 25.12 3.50 8.25
  Q 3.63 5.80 5.31 4.13
  Q 6.74 2.69 8.57 2.93
  Q 11.22 3.27 10.75 6.75
  Q 9.38 16.88 8.06 27.01
  C 8.02 27.39 8.17 27.73 8.42 27.77
  Q 8.77 27.84 9.07 27.29
  Q 13.18 19.80 19.56 17.56
  Q 22.51 16.53 23.95 18.69
  Q 24.61 19.67 25.05 22.46
  Q 25.62 26.09 26.32 29.70
  C 26.46 30.44 27.20 30.90 27.93 30.70
  Q 34.83 28.78 39.44 23.14
  C 39.63 22.90 39.75 22.59 39.76 22.25
  Q 40.05 16.47 45.48 16.27
  C 46.42 16.24 47.21 16.97 47.24 17.90
  Q 47.33 20.48 46.88 22.68
  Q 45.94 27.35 47.00 32.01
  C 47.20 32.89 48.10 33.43 48.97 33.19
  Q 51.67 32.45 54.04 30.57
  Q 58.50 27.03 62.26 22.74
  C 62.84 22.08 63.21 21.24 63.29 20.36
  Q 63.93 13.78 64.79 6.91
  Q 65.06 4.77 65.87 3.82
  Q 67.28 2.20 69.52 3.06
  Q 72.07 4.03 71.62 6.64
  L 68.68 23.71
  Q 68.45 25.05 69.40 24.10
  Z
  M 102.08 23.85
  Q 99.28 27.43 98.06 31.83
  Q 97.29 34.60 99.82 33.23
  Q 106.49 29.61 107.87 22.07
  Q 108.34 19.48 105.98 20.66
  Q 103.64 21.84 102.08 23.85
  Z"
/>
<path fill="white" d="
  M 169.16 30.13
  Q 167.24 32.24 165.37 34.39
  Q 162.58 37.63 158.68 38.73
  Q 155.30 39.69 153.03 38.06
  Q 150.26 36.07 150.95 31.69
  Q 151.85 26.00 152.28 19.81
  Q 152.43 17.63 154.50 16.91
  Q 159.06 15.33 158.87 20.75
  Q 158.70 25.84 157.25 30.75
  Q 156.08 34.71 159.25 32.50
  Q 164.92 28.54 167.38 22.05
  Q 168.54 18.98 169.94 16.30
  Q 170.82 14.60 172.74 14.50
  Q 174.88 14.39 175.03 17.00
  Q 175.14 18.99 174.71 20.94
  Q 173.86 24.75 175.57 28.45
  C 175.88 29.13 176.66 29.45 177.36 29.21
  Q 180.67 28.06 183.39 25.65
  Q 186.36 23.02 189.26 20.31
  Q 190.28 19.36 191.12 19.29
  Q 192.83 19.16 192.50 21.75
  Q 192.23 23.87 190.20 26.05
  Q 189.13 27.20 186.72 29.36
  Q 183.32 32.40 179.15 34.23
  Q 176.01 35.61 173.71 34.83
  Q 170.69 33.80 169.63 30.23
  Q 169.49 29.76 169.16 30.13
  Z"
/>
</svg>
